<svg xmlns="http://www.w3.org/2000/svg" viewBox="0 0 512 512"><path d="M504.5 268.5a7.5 7.5 0 0 0-7.5 7.5v207.581c0 7.399-6.02 13.419-13.419 13.419H28.419C21.02 497 15 490.98 15 483.581V276a7.5 7.5 0 0 0-15 0v207.581C0 499.251 12.749 512 28.419 512H483.58c15.67 0 28.419-12.749 28.419-28.419V276a7.499 7.499 0 0 0-7.499-7.5zM483.581 0H28.419C12.749 0 0 12.749 0 28.419V236a7.5 7.5 0 0 0 15 0V28.419C15 21.02 21.02 15 28.419 15H483.58c7.4 0 13.42 6.02 13.42 13.419V236a7.5 7.5 0 0 0 15 0V28.419C512 12.749 499.251 0 483.581 0z"/><path d="M410.337 101.662C369.113 60.436 314.301 37.732 256 37.732c-58.301 0-113.113 22.704-154.338 63.929-41.226 41.226-63.93 96.038-63.93 154.339s22.704 113.113 63.929 154.338c41.225 41.226 96.037 63.929 154.338 63.929 58.301 0 113.113-22.704 154.338-63.929 41.226-41.225 63.929-96.037 63.929-154.338s-22.704-113.113-63.929-154.338zM256 459.268c-112.082 0-203.268-91.186-203.268-203.268S143.918 52.732 256 52.732 459.268 143.918 459.268 256 368.082 459.268 256 459.268zm197.215-37.194c-15.732 0-28.531 12.799-28.531 28.531s12.799 28.531 28.531 28.531 28.531-12.799 28.531-28.531-12.799-28.531-28.531-28.531zm0 42.062c-7.461 0-13.531-6.07-13.531-13.531s6.07-13.531 13.531-13.531 13.531 6.07 13.531 13.531-6.07 13.531-13.531 13.531zm-394.43-42.062c-15.732 0-28.531 12.799-28.531 28.531s12.799 28.531 28.531 28.531 28.531-12.799 28.531-28.531-12.799-28.531-28.531-28.531zm0 42.062c-7.461 0-13.531-6.07-13.531-13.531s6.07-13.531 13.531-13.531 13.531 6.07 13.531 13.531-6.07 13.531-13.531 13.531zm0-437.636c-15.732 0-28.531 12.799-28.531 28.531s12.799 28.531 28.531 28.531 28.531-12.799 28.531-28.531S74.517 26.5 58.785 26.5zm0 42.062c-7.461 0-13.531-6.07-13.531-13.531S51.324 41.5 58.785 41.5s13.531 6.07 13.531 13.531-6.07 13.531-13.531 13.531zM453.215 26.5c-15.732 0-28.531 12.799-28.531 28.531s12.799 28.531 28.531 28.531 28.531-12.799 28.531-28.531S468.947 26.5 453.215 26.5zm0 42.062c-7.461 0-13.531-6.07-13.531-13.531s6.07-13.531 13.531-13.531 13.531 6.07 13.531 13.531-6.07 13.531-13.531 13.531z"/><path d="M443.386 245.611c-.624-11.328-9.284-20.793-20.591-22.507-14.306-2.17-30.979-3.27-49.554-3.27-14.527 0-28.027.671-38.656 1.431 17.379-11.309 39.756-19.679 66.718-24.91 7.8-1.514 14.139-6.547 17.393-13.81a24.32 24.32 0 0 0-1.293-22.356v.001a188.093 188.093 0 0 0-36.248-44.039 23.978 23.978 0 0 0-16.024-6.11 24.21 24.21 0 0 0-14.45 4.754c-24.869 18.32-48.746 43.841-63.675 61.075 4.293-20.286 14.198-42.028 29.563-64.792 4.444-6.585 5.367-14.627 2.533-22.063a24.323 24.323 0 0 0-16.721-14.894 188.995 188.995 0 0 0-56.772-5.508c-11.327.625-20.792 9.286-22.506 20.591-4.632 30.536-3.468 65.469-1.839 88.21-11.309-17.379-19.679-39.756-24.91-66.717-2.195-11.313-12.189-19.524-23.763-19.524a24.284 24.284 0 0 0-12.403 3.424 188.256 188.256 0 0 0-44.037 36.249c-7.567 8.451-8.137 21.267-1.355 30.475 18.321 24.87 43.842 48.746 61.075 63.675-20.285-4.293-42.027-14.197-64.791-29.563-4-2.7-8.646-4.127-13.435-4.127-11.11 0-20.783 7.532-23.523 18.315a188.209 188.209 0 0 0-5.508 56.771c.625 11.327 9.286 20.792 20.591 22.506 14.307 2.17 30.979 3.271 49.554 3.271 14.522 0 28.024-.672 38.656-1.431-17.379 11.309-39.756 19.679-66.718 24.91-7.799 1.514-14.138 6.547-17.393 13.81a24.323 24.323 0 0 0 1.292 22.356 188.28 188.28 0 0 0 36.249 44.037 23.985 23.985 0 0 0 16.024 6.109 24.21 24.21 0 0 0 14.451-4.754c24.87-18.321 48.746-43.841 63.674-61.074-4.293 20.286-14.197 42.027-29.562 64.791-4.445 6.585-5.368 14.627-2.534 22.064a24.325 24.325 0 0 0 16.722 14.894 188.503 188.503 0 0 0 56.771 5.507c11.327-.625 20.792-9.286 22.506-20.591 4.63-30.537 3.468-65.47 1.839-88.21 11.308 17.38 19.679 39.756 24.911 66.717 2.194 11.313 12.188 19.525 23.763 19.526 4.347 0 8.635-1.184 12.402-3.424a188.226 188.226 0 0 0 44.036-36.249c7.569-8.451 8.139-21.268 1.355-30.475-18.322-24.872-43.842-48.747-61.074-63.675 20.285 4.293 42.027 14.197 64.792 29.563 4 2.7 8.646 4.126 13.435 4.126 11.109 0 20.782-7.531 23.522-18.315a188.212 188.212 0 0 0 5.508-56.77zm-83.81-118.739a9.31 9.31 0 0 1 5.555-1.832 9 9 0 0 1 6.018 2.284 173.188 173.188 0 0 1 33.363 40.532 9.308 9.308 0 0 1 .496 8.554c-1.249 2.786-3.579 4.639-6.562 5.218-30.099 5.84-55.107 15.472-74.486 28.673a82.583 82.583 0 0 0-25.735-24.476c14.44-16.683 37.532-41.406 61.351-58.953zM237.933 91.453c.655-4.32 4.231-7.627 8.502-7.863a173.478 173.478 0 0 1 52.252 5.069 9.305 9.305 0 0 1 6.398 5.697c1.087 2.854.75 5.812-.949 8.331-17.146 25.401-28.017 49.886-32.39 72.914-.426-.083-.857-.143-1.285-.219-.795-.142-1.587-.289-2.39-.408-.59-.088-1.184-.151-1.776-.226-.731-.092-1.459-.194-2.196-.266-.753-.075-1.51-.119-2.266-.173-.585-.041-1.166-.098-1.755-.127a82.673 82.673 0 0 0-4.078-.103c-1.262 0-2.519.038-3.774.096-.241.011-.482.02-.722.033a82.313 82.313 0 0 0-3.517.268c-.295.029-.588.063-.883.095a81.873 81.873 0 0 0-3.131.399c-.325.048-.648.1-.971.152-.905.146-1.807.308-2.707.485-.457.089-.914.179-1.369.276-.9.193-1.798.397-2.691.62-1.585-22.01-2.736-55.811 1.698-85.05zm-99.177 185.714c-17.823 0-33.738-1.043-47.304-3.101-4.32-.655-7.626-4.231-7.862-8.502a173.216 173.216 0 0 1 5.068-52.251 9.274 9.274 0 0 1 8.985-7.009c1.788 0 3.531.539 5.043 1.56 25.402 17.146 49.886 28.017 72.914 32.39-.083.426-.143.857-.219 1.285-.142.795-.289 1.587-.408 2.39-.088.59-.151 1.184-.226 1.776-.092.731-.194 1.459-.266 2.196-.075.753-.119 1.51-.173 2.266-.041.585-.098 1.166-.127 1.755a82.673 82.673 0 0 0-.103 4.078c0 1.262.038 2.519.096 3.774.011.241.02.482.033.723a82.22 82.22 0 0 0 .268 3.515c.029.296.063.591.095.887.114 1.043.244 2.083.398 3.12a81.56 81.56 0 0 0 .636 3.677c.09.463.181.925.279 1.386.192.897.396 1.792.618 2.682-10.37.744-23.564 1.403-37.745 1.403zm-11.884-124.744c-2.591-3.519-2.401-8.385.453-11.572a173.277 173.277 0 0 1 40.53-33.363 9.276 9.276 0 0 1 4.735-1.316c4.407 0 8.208 3.104 9.038 7.382 5.84 30.099 15.472 55.107 28.673 74.486a82.571 82.571 0 0 0-24.476 25.735c-16.682-14.439-41.406-37.533-58.953-61.352zm25.551 232.704a9.306 9.306 0 0 1-5.555 1.832 9.008 9.008 0 0 1-6.018-2.284 173.29 173.29 0 0 1-33.364-40.531 9.308 9.308 0 0 1-.496-8.554c1.249-2.787 3.579-4.64 6.562-5.219 30.099-5.84 55.107-15.472 74.486-28.673a82.571 82.571 0 0 0 25.735 24.476c-14.437 16.683-37.531 41.407-61.35 58.953zm121.644 35.42c-.655 4.32-4.231 7.626-8.502 7.862-17.54.967-35.256-.75-52.251-5.068a9.304 9.304 0 0 1-6.399-5.697c-1.087-2.854-.75-5.812.95-8.331 17.146-25.402 28.017-49.886 32.389-72.914.417.082.838.139 1.256.215.804.144 1.606.292 2.417.413.597.089 1.197.153 1.797.229.723.091 1.444.192 2.173.264.766.076 1.536.121 2.305.176.573.04 1.142.096 1.719.125 1.357.067 2.717.104 4.08.104 1.262 0 2.52-.038 3.775-.096.24-.011.481-.02.721-.033a82.282 82.282 0 0 0 3.519-.268c.294-.029.586-.062.879-.094a80.522 80.522 0 0 0 3.138-.4c.321-.047.64-.099.96-.15a80.324 80.324 0 0 0 2.715-.486c.456-.089.912-.178 1.365-.275.9-.193 1.799-.397 2.693-.62 1.584 22.004 2.734 55.805-1.699 85.044zm17.985-108.209c-.758.488-1.526.96-2.305 1.418l-.099.057c-.776.454-1.562.895-2.358 1.318l-.033.02a66.584 66.584 0 0 1-7.422 3.37l-.025.008c-.913.349-1.832.675-2.756.982l-.188.064c-.835.276-1.675.529-2.518.771-.193.055-.386.112-.58.165a66.78 66.78 0 0 1-3.189.795c-.659.148-1.319.286-1.982.413-.427.082-.856.157-1.285.23-.581.1-1.163.197-1.747.281-.534.077-1.071.141-1.609.205-.504.06-1.008.124-1.513.173-.662.064-1.33.108-1.997.152-.399.026-.797.062-1.196.082-1.077.052-2.16.082-3.25.082a67.73 67.73 0 0 1-3.064-.078c-.311-.014-.622-.034-.933-.052a67.246 67.246 0 0 1-2.215-.169c-.31-.029-.621-.054-.931-.087a66.408 66.408 0 0 1-2.88-.367c-.276-.042-.55-.095-.826-.14a60.687 60.687 0 0 1-3.289-.624 67.852 67.852 0 0 1-1.744-.403c-.395-.097-.791-.189-1.185-.293a66.277 66.277 0 0 1-10.245-3.637l-.042-.022c-11.823-5.32-21.932-14.066-28.943-24.935l-.049-.076a66.75 66.75 0 0 1-1.407-2.288c-.023-.04-.045-.08-.069-.119a67.748 67.748 0 0 1-1.31-2.343c-.006-.011-.013-.02-.018-.031a66.773 66.773 0 0 1-3.371-7.422c-.003-.009-.005-.019-.009-.028a67.895 67.895 0 0 1-.986-2.765l-.059-.173a66.954 66.954 0 0 1-.774-2.53c-.054-.19-.109-.378-.162-.569a64.955 64.955 0 0 1-.795-3.189 67.462 67.462 0 0 1-.414-1.989 66.969 66.969 0 0 1-.229-1.279c-.1-.583-.197-1.167-.282-1.753a65.034 65.034 0 0 1-.204-1.604c-.06-.505-.124-1.01-.173-1.517a68.782 68.782 0 0 1-.152-1.995c-.026-.4-.063-.798-.082-1.198a67.349 67.349 0 0 1-.082-3.249c0-1.027.032-2.047.078-3.063.014-.312.034-.623.052-.935.044-.74.101-1.477.169-2.211.029-.312.054-.624.087-.935a66.47 66.47 0 0 1 .367-2.877c.042-.28.096-.558.142-.837a67.82 67.82 0 0 1 .372-2.078 67.317 67.317 0 0 1 .653-2.943c.097-.397.19-.795.295-1.19a66.317 66.317 0 0 1 3.636-10.243l.022-.042c5.32-11.823 14.066-21.932 24.935-28.943l.076-.049a66.75 66.75 0 0 1 2.288-1.407c.04-.023.08-.045.119-.069a67.748 67.748 0 0 1 2.343-1.31c.011-.006.02-.013.031-.018a66.481 66.481 0 0 1 7.416-3.368l.034-.011c.916-.35 1.838-.677 2.765-.986l.173-.059a66.954 66.954 0 0 1 2.53-.774c.19-.054.378-.109.569-.162a64.955 64.955 0 0 1 3.189-.795 67.462 67.462 0 0 1 1.989-.414c.425-.081.851-.156 1.279-.229.583-.1 1.167-.197 1.753-.282a65.034 65.034 0 0 1 1.604-.204c.505-.06 1.01-.124 1.517-.173a68.782 68.782 0 0 1 1.995-.152c.4-.026.798-.063 1.198-.082a67.349 67.349 0 0 1 3.249-.082c1.027 0 2.047.032 3.063.078.312.014.623.034.935.052.74.044 1.477.101 2.211.169.312.029.624.054.935.087a66.47 66.47 0 0 1 2.877.367c.28.042.558.096.837.142a67.82 67.82 0 0 1 2.078.372 67.317 67.317 0 0 1 2.943.653c.397.097.795.19 1.19.295a66.317 66.317 0 0 1 10.243 3.636l.042.022c11.823 5.32 21.932 14.066 28.943 24.935l.049.076a66.75 66.75 0 0 1 1.407 2.288c.023.04.045.08.069.119.451.772.889 1.552 1.31 2.343.006.011.013.02.018.031a66.773 66.773 0 0 1 3.371 7.422c.003.009.005.019.009.028.35.915.676 1.836.985 2.762l.06.178c.276.837.53 1.68.773 2.525.055.191.111.382.163.574a67.075 67.075 0 0 1 .795 3.189c.148.66.286 1.322.414 1.986.081.425.156.853.229 1.281.1.582.197 1.166.282 1.751.077.533.141 1.069.205 1.606.06.505.124 1.009.173 1.516.064.662.108 1.329.152 1.996.026.399.062.798.082 1.198.052 1.077.082 2.16.082 3.25 0 1.027-.032 2.047-.078 3.063-.014.312-.034.623-.052.935-.044.74-.101 1.477-.169 2.211-.029.312-.054.624-.087.935a66.47 66.47 0 0 1-.367 2.877c-.042.28-.096.558-.142.837a67.82 67.82 0 0 1-.372 2.078 67.317 67.317 0 0 1-.653 2.943c-.097.397-.19.795-.295 1.19a66.317 66.317 0 0 1-3.636 10.243l-.022.042c-5.322 11.825-14.07 21.938-24.944 28.949a.263.263 0 0 0-.057.031zm93.075 47.239c2.592 3.518 2.401 8.385-.453 11.572a173.243 173.243 0 0 1-40.529 33.363 9.28 9.28 0 0 1-4.736 1.316c-4.407 0-8.208-3.104-9.037-7.382-5.841-30.099-15.473-55.107-28.673-74.486a82.568 82.568 0 0 0 24.475-25.735c16.683 14.438 41.406 37.531 58.953 61.352zm38.215-60.892a9.275 9.275 0 0 1-8.985 7.009 8.99 8.99 0 0 1-5.042-1.56c-25.403-17.146-49.887-28.017-72.914-32.39.084-.43.144-.864.221-1.295.141-.79.287-1.577.405-2.375.09-.604.155-1.211.232-1.817.09-.718.19-1.433.262-2.157.076-.765.121-1.534.176-2.302.04-.575.096-1.145.125-1.722.067-1.357.104-2.717.104-4.08 0-1.262-.038-2.519-.096-3.774-.011-.241-.02-.482-.033-.723a82.22 82.22 0 0 0-.268-3.515c-.029-.296-.063-.591-.095-.887a81.555 81.555 0 0 0-.398-3.12c-.049-.332-.102-.662-.155-.992a81.09 81.09 0 0 0-.481-2.685c-.09-.463-.181-.925-.279-1.385a82.632 82.632 0 0 0-.618-2.683c10.364-.739 23.556-1.399 37.739-1.399 17.825 0 33.741 1.043 47.306 3.1 4.32.655 7.626 4.231 7.862 8.502a173.22 173.22 0 0 1-5.068 52.25z"/></svg>