<svg xmlns="http://www.w3.org/2000/svg" viewBox="0 0 512 512"><path d="M501.333 83.733h-384c-5.891 0-10.667 4.776-10.667 10.667v21.333h-32c-5.89 0-10.666 4.776-10.666 10.667v87.36c-25.387 8.64-42.667 22.507-42.667 40.64v42.667c.062 3.677.86 7.304 2.347 10.667C4.693 318.4 0 330.773 0 339.733V382.4c0 20.48 22.187 35.307 53.333 43.947v30.72c0 34.987 64 53.333 128 53.333s128-18.347 128-53.333V414.4c0-18.88-18.987-34.24-53.333-43.84v-9.493h202.667c5.891 0 10.667-4.776 10.667-10.667v-32h32c5.891 0 10.667-4.776 10.667-10.667V94.4c-.001-5.891-4.777-10.667-10.668-10.667zm-416 53.334h21.333v66.88c-7.36.96-14.507 2.24-21.333 3.84v-70.72zm64 85.333c64 0 106.667 19.307 106.667 32s-42.667 32-106.667 32-106.667-19.307-106.667-32 42.667-32 106.667-32zM248 219.307c-10.074-33.88 9.225-69.512 43.106-79.586s69.512 9.225 79.586 43.106c10.074 33.88-9.225 69.512-43.106 79.586a64.02 64.02 0 0 1-18.252 2.654 63.992 63.992 0 0 1-32-8.747v-1.92c-.001-14.72-11.414-26.453-29.334-35.093zM42.667 285.12c24.213 14.933 65.493 22.613 106.667 22.613 41.173 0 82.453-7.68 106.667-22.613v11.947c0 12.693-42.667 32-106.667 32s-106.667-19.307-106.667-32V285.12zm-5.12 39.253c23.147 17.173 67.627 26.027 111.787 26.027a268.378 268.378 0 0 0 85.333-12.48 6.054 6.054 0 0 1 0 1.813c0 12.693-42.667 32-106.667 32s-106.667-19.307-106.667-32c0-3.84 5.12-9.706 16.214-15.36zM21.333 382.4v-11.947C45.547 385.387 86.827 393.067 128 393.067s82.453-7.68 106.667-22.613V382.4c0 12.693-42.667 32-106.667 32s-106.667-19.307-106.667-32zM288 457.067c0 12.693-42.667 32-106.667 32s-106.667-19.307-106.667-32V445.12c24.213 14.933 65.493 22.613 106.667 22.613 41.173 0 82.453-7.68 106.667-22.613v11.947zm0-42.667c0 12.693-42.667 32-106.667 32a242.017 242.017 0 0 1-78.507-11.627c8.32.64 16.747.96 25.173.96 57.493 0 115.413-15.04 126.08-43.733C278.72 399.573 288 409.173 288 414.4zm160-74.667H256a27.529 27.529 0 0 0-2.24-10.667 61.644 61.644 0 0 0 14.08-10.667H448v21.334zm42.667-42.666H277.333v-17.173c43.689 17.673 93.433-3.418 111.106-47.107 17.673-43.689-3.418-93.433-47.107-111.106-43.689-17.673-93.433 3.418-111.106 47.107a85.34 85.34 0 0 0-6.227 32.279c.037 3.174.25 6.343.64 9.493a283.8 283.8 0 0 0-75.307-9.493c-7.147 0-14.293 0-21.333.747v-96.747h362.667v192zm0 117.333c0 17.673-14.327 32-32 32H399.04l24.427-24.427-15.04-15.04L365.76 449.6c-4.136 4.16-4.136 10.88 0 15.04l42.667 42.667 15.04-15.04-24.427-24.533h59.627c29.455 0 53.333-23.878 53.333-53.333v-32h-21.333V414.4zM21.333 94.4c0-17.673 14.327-32 32-32H80.96L56.427 86.827l15.147 15.147 42.667-42.667c4.136-4.16 4.136-10.88 0-15.04L71.573 1.6 56.427 16.64 80.96 41.067H53.333C23.878 41.067 0 64.945 0 94.4v64h21.333v-64zM0 179.733h21.333v21.333H0zm490.667 160H512v21.333h-21.333z"/><path d="M160 137.067h21.333v-21.333h-32c-5.891 0-10.667 4.776-10.667 10.667v32H160v-21.334zM458.667 158.4H480v-32c0-5.891-4.776-10.667-10.667-10.667h-32v21.333h21.333V158.4zM480 275.733v-32h-21.333v21.333h-21.333V286.4h32c5.89 0 10.666-4.776 10.666-10.667z"/></svg>