<svg xmlns="http://www.w3.org/2000/svg" viewBox="0 0 450.255 450.255"><path d="M344.101 296.655c-1.6-4-4-8-6.4-11.2-2.4-3.2-5.6-5.6-9.6-8-4-2.4-7.2-3.2-12-4 3.2-1.6 6.4-3.2 8.8-5.6 2.4-2.4 4.8-4.8 6.4-7.2 1.6-2.4 3.2-5.6 4-8.8.8-3.2 1.6-6.4 1.6-10.4 0-6.4-.8-11.2-3.2-16-1.6-4.8-4.8-8.8-8.8-12s-8.8-5.6-14.4-7.2v-24c0-4.8-3.2-8-8-8s-8 3.2-8 8v21.6h-17.6v-21.6c0-4.8-3.2-8-8-8s-8 3.2-8 8v21.6h-7.2c-1.6 0-3.2.8-4.8 1.6s-2.4 3.2-2.4 6.4v136.8c0 3.2.8 5.6 2.4 6.4 1.6 0 3.2.8 4.8.8h7.2v23.2c0 4.8 3.2 8 8 8s8-3.2 8-8v-23.2h18.4v23.2c0 4.8 3.2 8 8 8s8-3.2 8-8v-24.8c4-.8 7.2-1.6 10.4-3.2 4-1.6 7.2-4 10.4-6.4 3.2-2.4 5.6-5.6 8-8.8 2.4-3.2 4-7.2 4.8-11.2 1.6-4 1.6-8.8 1.6-13.6-.001-5.6-.8-9.6-2.4-14.4zm-77.601-76.8h20.8c5.6-.8 10.4 0 14.4.8 3.2.8 6.4 2.4 8.8 4.8 2.4 2.4 4 4.8 4.8 8s1.6 6.4 1.6 10.4c0 3.2-.8 6.4-1.6 9.6-.8 3.2-2.4 5.6-4.8 8-2.4 2.4-4.8 4-8 5.6-3.2 1.6-7.2 2.4-12.8 2.4h-23.2v-49.6zm56.8 104.8c-1.6 3.2-3.2 5.6-6.4 8-2.4 2.4-5.6 4-8.8 4.8-3.2.8-7.2 1.6-12 1.6h-29.6v-53.6h24c6.4 0 12 .8 16 1.6s8 3.2 10.4 5.6c2.4 2.4 4.8 5.6 6.4 8.8 1.6 3.2 2.4 7.2 2.4 12 .001 4-.799 8-2.4 11.2z"/><path d="M441.7 400.655l-32-32c18.4-24.8 28.8-55.2 28.8-88 0-81.6-66.4-148.8-148.8-148.8-32.8 0-63.2 11.2-88 28.8l-44-44s-.8-.8-1.6-.8c87.2-66.4 207.2-83.2 208.8-83.2 2.4 0 4-1.6 5.6-3.2.8-.8 1.6-1.6 2.4-3.2 1.6-4 0-8.8-4-10.4-2.4-.8-134.4-57.6-261.6 48.8 0-.8-.8-.8-1.6-1.6l-23.2-24c-6.4-6.4-18.4-4.8-25.6 2.4l-16 16c-3.2 3.2-5.6 8-6.4 12-.8 5.6.8 10.4 4 13.6l23.2 23.2 1.6 1.6c-101.6 127.2-46.4 256.8-45.6 258.4 1.6 3.2 4 4.8 7.2 4.8.8 0 2.4 0 3.2-.8 1.6-.8 2.4-1.6 3.2-2.4 1.6-1.6 3.2-3.2 3.2-5.6 0-1.6 14.4-118.4 80-203.2 0 .8.8.8.8 1.6l47.2 47.2c-12 21.6-19.2 46.4-19.2 72.8 0 81.6 66.4 148 148 148 26.4 0 51.2-7.2 72.8-19.2l34.4 34.4c4 4 9.6 6.4 14.4 6.4s8.8-1.6 12-4.8l18.4-18.4c7.2-7.2 6.4-19.2-1.6-26.4zm-391.2-328c0-.8 0-2.4 1.6-4l16-16c1.6-1.6 3.2-1.6 3.2-2.4l23.2 23.2c0 .8 0 2.4-1.6 4l-16 16c-1.6 1.6-2.4 1.6-3.2 1.6l-23.2-22.4zm64 60.8c-.8.8-2.4 2.4-2.4 4-56 64-79.2 149.6-88.8 193.6-11.2-46.4-18.4-143.2 73.6-236.8 93.6-92 191.2-84 237.6-72.8-44 9.6-132.8 34.4-197.6 91.2-1.6.8-2.4 1.6-4 2.4l-8.8 8.8-9.6 9.6zm12.8 15.2c-.8-.8-1.6-2.4-1.6-3.2 3.2-3.2 5.6-6.4 8.8-9.6l.8-.8c3.2-3.2 6.4-6.4 9.6-8.8.8 0 1.6 0 3.2 1.6l43.2 43.2c-7.2 6.4-13.6 14.4-20 22.4l-44-44.8zm164 264c-73.6 0-132.8-59.2-132.8-132.8s60-132 132.8-132 132.8 59.2 132.8 132c.001 72.8-59.199 132.8-132.8 132.8zm123.2 20.8c-.8 0-2.4.8-4-1.6l-32-32c8-5.6 15.2-12.8 22.4-20l30.4 31.2c1.6 1.6 1.6 4 1.6 4l-18.4 18.4z"/></svg>