<?xml version="1.0" encoding="iso-8859-1"?>
<!-- Generator: Adobe Illustrator 19.0.0, SVG Export Plug-In . SVG Version: 6.00 Build 0)  -->
<svg version="1.1" id="Capa_1" xmlns="http://www.w3.org/2000/svg" xmlns:xlink="http://www.w3.org/1999/xlink" x="0px" y="0px"
	 viewBox="0 0 480 480" style="enable-background:new 0 0 480 480;" xml:space="preserve">
<g>
	<g>
		<path d="M472,240h-8.888l-15.168-128.936C447.472,107.04,444.056,104,440,104h-88.28c-0.04-0.608-0.16-1.192-0.216-1.792
			c-0.144-1.696-0.376-3.36-0.6-5.032c-0.264-1.976-0.536-3.952-0.904-5.896c-0.312-1.656-0.688-3.288-1.072-4.912
			c-0.448-1.904-0.912-3.792-1.456-5.648c-0.464-1.608-0.992-3.176-1.528-4.752c-0.624-1.824-1.272-3.624-1.976-5.4
			c-0.616-1.544-1.272-3.064-1.96-4.568c-0.784-1.728-1.6-3.432-2.464-5.112c-0.76-1.472-1.552-2.928-2.368-4.36
			c-0.936-1.632-1.912-3.232-2.92-4.808c-0.896-1.392-1.808-2.768-2.76-4.112c-1.08-1.528-2.2-3.008-3.352-4.48
			c-1.024-1.304-2.048-2.592-3.12-3.848c-1.208-1.416-2.472-2.776-3.752-4.128c-1.136-1.2-2.264-2.392-3.456-3.536
			c-1.344-1.296-2.736-2.536-4.144-3.768c-1.248-1.088-2.472-2.176-3.76-3.208c-1.472-1.176-3-2.28-4.528-3.384
			c-1.32-0.952-2.624-1.92-3.992-2.824c-1.592-1.048-3.248-2.008-4.896-2.976c-1.392-0.816-2.768-1.664-4.2-2.424
			c-1.72-0.912-3.504-1.72-5.272-2.544c-1.448-0.672-2.872-1.384-4.352-2c-1.864-0.768-3.792-1.416-5.704-2.088
			c-1.464-0.512-2.896-1.08-4.384-1.536c-2.04-0.624-4.144-1.096-6.232-1.608c-1.432-0.344-2.832-0.76-4.288-1.056
			c-2.352-0.472-4.76-0.776-7.16-1.096c-1.248-0.168-2.464-0.416-3.72-0.544C247.512,0.2,243.776,0,240,0s-7.512,0.2-11.192,0.568
			c-1.256,0.128-2.472,0.376-3.72,0.544c-2.4,0.32-4.808,0.624-7.16,1.096c-1.448,0.288-2.856,0.704-4.288,1.056
			c-2.088,0.504-4.192,0.984-6.232,1.608c-1.488,0.448-2.92,1.016-4.384,1.528c-1.912,0.672-3.84,1.32-5.704,2.088
			c-1.48,0.616-2.904,1.32-4.352,2c-1.768,0.824-3.552,1.632-5.272,2.544c-1.432,0.76-2.808,1.608-4.2,2.424
			c-1.648,0.968-3.304,1.928-4.896,2.976c-1.36,0.896-2.672,1.864-3.992,2.824c-1.528,1.104-3.056,2.208-4.528,3.384
			c-1.28,1.032-2.504,2.112-3.744,3.192c-1.408,1.232-2.8,2.472-4.144,3.768c-1.184,1.144-2.32,2.344-3.456,3.536
			c-1.28,1.352-2.544,2.712-3.752,4.128c-1.072,1.256-2.104,2.544-3.12,3.848c-1.152,1.472-2.272,2.952-3.352,4.48
			c-0.952,1.352-1.864,2.72-2.76,4.112c-1.016,1.576-1.992,3.176-2.92,4.808c-0.824,1.432-1.608,2.888-2.368,4.36
			c-0.864,1.68-1.68,3.384-2.464,5.112c-0.68,1.512-1.344,3.024-1.96,4.568c-0.712,1.776-1.36,3.576-1.976,5.4
			c-0.536,1.576-1.056,3.152-1.528,4.752c-0.544,1.864-1.008,3.752-1.456,5.648c-0.392,1.648-0.768,3.272-1.08,4.928
			c-0.368,1.944-0.64,3.912-0.904,5.896c-0.224,1.672-0.456,3.336-0.6,5.032c-0.056,0.608-0.168,1.192-0.216,1.792H40
			c-4.056,0-7.472,3.04-7.944,7.064L16.888,240H8c-4.424,0-8,3.576-8,8v32c0,4.424,3.576,8,8,8h24v168c0,13.232,10.768,24,24,24h248
			h96h24c13.232,0,24-10.768,24-24V288h24c4.424,0,8-3.576,8-8v-32C480,243.576,476.424,240,472,240z M152.456,176
			c2.92,0,5.616-1.592,7.016-4.168c1.4-2.56,1.296-5.68-0.288-8.152c-9.624-15.016-14.808-32.256-15.128-49.968
			c0.128-0.568,0.344-1.104,0.344-1.712c0-0.688-0.144-1.344-0.304-1.984c0.032-1.424,0.12-2.832,0.216-4.248
			c0.104-1.568,0.176-3.136,0.352-4.68c0.184-1.656,0.48-3.272,0.752-4.904c0.248-1.504,0.472-3.024,0.792-4.504
			c0.352-1.616,0.8-3.192,1.232-4.776c0.392-1.44,0.752-2.888,1.2-4.296c0.504-1.568,1.112-3.096,1.696-4.624
			c0.52-1.368,1.008-2.744,1.584-4.08c0.656-1.512,1.408-2.96,2.136-4.432c0.64-1.288,1.248-2.6,1.944-3.856
			c0.8-1.44,1.696-2.824,2.568-4.224c0.752-1.2,1.464-2.424,2.264-3.592c0.936-1.36,1.96-2.656,2.968-3.968
			c0.856-1.112,1.672-2.256,2.568-3.336c1.064-1.264,2.208-2.456,3.328-3.664c0.952-1.024,1.864-2.088,2.856-3.064
			c1.184-1.168,2.456-2.256,3.696-3.36c1.032-0.92,2.032-1.88,3.096-2.752c1.296-1.064,2.672-2.024,4.024-3.016
			c1.112-0.816,2.192-1.68,3.336-2.448c1.4-0.936,2.872-1.768,4.328-2.632c1.184-0.704,2.336-1.464,3.552-2.12
			c1.52-0.816,3.104-1.512,4.672-2.256c1.224-0.576,2.416-1.216,3.664-1.736c1.64-0.688,3.344-1.248,5.032-1.848
			c1.248-0.44,2.464-0.952,3.736-1.344c1.792-0.552,3.64-0.96,5.472-1.408c1.224-0.304,2.416-0.672,3.656-0.928
			c2.072-0.424,4.2-0.68,6.32-0.968c1.048-0.144,2.072-0.368,3.128-0.472C233.472,16.168,236.712,16,240,16
			c3.288,0,6.528,0.168,9.728,0.496c1.056,0.104,2.08,0.328,3.128,0.472c2.12,0.288,4.248,0.544,6.32,0.968
			c1.24,0.256,2.44,0.624,3.656,0.928c1.832,0.448,3.68,0.856,5.472,1.408c1.272,0.392,2.488,0.904,3.736,1.344
			c1.688,0.6,3.392,1.152,5.032,1.848c1.248,0.528,2.44,1.16,3.664,1.736c1.568,0.736,3.152,1.432,4.672,2.256
			c1.216,0.656,2.368,1.416,3.552,2.12c1.448,0.864,2.928,1.688,4.328,2.632c1.152,0.768,2.224,1.632,3.336,2.448
			c1.352,0.992,2.728,1.952,4.024,3.016c1.072,0.872,2.064,1.832,3.096,2.752c1.248,1.112,2.512,2.192,3.696,3.36
			c0.992,0.984,1.904,2.04,2.856,3.064c1.12,1.208,2.272,2.4,3.328,3.664c0.896,1.08,1.712,2.224,2.568,3.336
			c1,1.312,2.032,2.6,2.968,3.968c0.8,1.168,1.512,2.392,2.264,3.592c0.872,1.4,1.768,2.776,2.568,4.224
			c0.696,1.256,1.296,2.56,1.944,3.856c0.728,1.464,1.48,2.92,2.136,4.432c0.576,1.336,1.064,2.712,1.584,4.08
			c0.584,1.536,1.192,3.056,1.696,4.624c0.456,1.408,0.816,2.864,1.2,4.296c0.432,1.584,0.88,3.16,1.232,4.776
			c0.32,1.48,0.544,3,0.792,4.504c0.272,1.624,0.56,3.248,0.752,4.904c0.176,1.544,0.248,3.112,0.352,4.68
			c0.088,1.408,0.184,2.816,0.216,4.248c-0.168,0.64-0.304,1.296-0.304,1.984c0,0.608,0.216,1.144,0.344,1.712
			c-0.32,17.712-5.496,34.952-15.128,49.968c-1.576,2.472-1.688,5.592-0.28,8.16c1.4,2.552,4.096,4.144,7.016,4.144H360v32H120v-32
			H152.456z M47.12,120h81.328c1,13.88,4.432,27.44,10.424,40H112c-4.424,0-8,3.576-8,8v48c0,4.424,3.576,8,8,8h256
			c4.424,0,8-3.576,8-8v-48c0-4.424-3.576-8-8-8h-26.864c5.992-12.56,9.424-26.12,10.424-40h81.32L447,240H33L47.12,120z M344,464
			h-32v-32h32V464z M344,416h-32v-32h32V416z M344,368h-32v-8c0-19.312,13.768-35.472,32-39.192V368z M392,464h-32v-32h32V464z
			 M392,416h-32v-32h32V416z M392,368h-32v-47.192c18.232,3.72,32,19.872,32,39.192V368z M432,456c0,4.416-3.584,8-8,8h-16V360
			c0-30.872-25.128-56-56-56s-56,25.128-56,56v104H56c-4.416,0-8-3.584-8-8V288h384V456z M464,272h-24H40H16v-16h8h432h8V272z"/>
	</g>
</g>
<g>
	<g>
		<path d="M240,416V312c0-4.424-3.576-8-8-8H88c-4.424,0-8,3.576-8,8v104H64v16h24h144h24v-16H240z M152,416H96v-40h56V416z
			 M152,360H96v-40h56V360z M224,416h-56v-40h56V416z M224,360h-56v-40h56V360z"/>
	</g>
</g>
<g>
	<g>
		<path d="M288,88h-8c0-4.424-3.576-8-8-8h-80c-4.424,0-8,3.576-8,8v32c0,22.056,17.944,40,40,40h16c16.36,0,30.416-9.896,36.608-24
			H288c13.232,0,24-10.768,24-24S301.232,88,288,88z M264,120c0,1.176-0.184,2.304-0.344,3.44c-0.136,0.816-0.288,1.632-0.528,2.56
			c-0.008,0.024,0.008,0.056,0,0.08C260.408,136.36,251.12,144,240,144h-16c-13.232,0-24-10.768-24-24V96h64V120z M288,120h-8v-16h8
			c4.416,0,8,3.584,8,8S292.416,120,288,120z"/>
	</g>
</g>
<g>
	<g>
		<rect x="176" y="176" width="128" height="16"/>
	</g>
</g>
<g>
	<g>
		<path d="M240,48c0-0.24,0.056-6.04,4.8-9.6l-9.6-12.8C224.536,33.592,224,45.664,224,48c0,13.376,9.344,21.016,11.216,22.416
			l9.56-12.832C244.584,57.44,240,53.944,240,48z"/>
	</g>
</g>
<g>
	<g>
		<path d="M272,48c0-0.24,0.056-6.04,4.8-9.6l-9.6-12.8C256.536,33.592,256,45.664,256,48c0,13.376,9.344,21.016,11.216,22.416
			l9.56-12.832C276.584,57.44,272,53.944,272,48z"/>
	</g>
</g>
<g>
	<g>
		<path d="M208,48c0-0.24,0.056-6.04,4.8-9.6l-9.6-12.8C192.536,33.592,192,45.664,192,48c0,13.376,9.344,21.016,11.216,22.416
			l9.56-12.832C212.584,57.44,208,53.944,208,48z"/>
	</g>
</g>
<g>
</g>
<g>
</g>
<g>
</g>
<g>
</g>
<g>
</g>
<g>
</g>
<g>
</g>
<g>
</g>
<g>
</g>
<g>
</g>
<g>
</g>
<g>
</g>
<g>
</g>
<g>
</g>
<g>
</g>
</svg>
