<?xml version="1.0" standalone="no"?>
<!DOCTYPE svg PUBLIC "-//W3C//DTD SVG 20010904//EN"
 "http://www.w3.org/TR/2001/REC-SVG-20010904/DTD/svg10.dtd">
<svg version="1.0" xmlns="http://www.w3.org/2000/svg"
 width="225.000000pt" height="155.000000pt" viewBox="0 0 225.000000 155.000000"
 preserveAspectRatio="xMidYMid meet">
<metadata>
Created by potrace 1.15, written by Peter Selinger 2001-2017
</metadata>
<g transform="translate(0.000000,155.000000) scale(0.100000,-0.100000)"
fill="#000000" stroke="none">
<path d="M817 1450 c-158 -43 -296 -84 -305 -92 -33 -26 -477 -401 -496 -418
-24 -23 -13 -60 18 -60 12 0 27 5 34 12 9 9 12 -78 12 -394 l0 -407 -31 -3
c-39 -4 -59 -29 -40 -52 12 -14 122 -16 1116 -16 994 0 1104 2 1116 16 19 23
-1 48 -40 52 l-31 3 0 407 c0 316 3 403 12 394 7 -7 22 -12 34 -12 31 0 42 37
18 60 -19 17 -463 392 -496 418 -17 13 -599 173 -621 171 -7 -1 -142 -36 -300
-79z m750 -110 l123 -33 202 -171 203 -172 3 -437 2 -437 -100 0 -100 0 0 378
c0 281 -3 381 -12 390 -17 17 -1509 17 -1526 0 -9 -9 -12 -109 -12 -390 l0
-378 -100 0 -100 0 2 437 3 437 202 172 203 171 172 46 c95 25 222 59 283 75
l110 29 160 -42 c88 -23 215 -57 282 -75z m263 -585 l0 -45 -705 0 -705 0 0
45 0 45 705 0 705 0 0 -45z m0 -155 l0 -40 -705 0 -705 0 0 40 0 40 705 0 705
0 0 -40z m0 -155 l0 -45 -705 0 -705 0 0 45 0 45 705 0 705 0 0 -45z m0 -155
l0 -40 -705 0 -705 0 0 40 0 40 705 0 705 0 0 -40z m-2 -157 l3 -43 -705 0
-706 0 0 38 c0 21 3 42 7 45 3 4 320 6 702 5 l696 -3 3 -42z"/>
<path d="M712 1208 c-16 -16 -16 -190 0 -206 8 -8 46 -12 105 -12 111 0 113 2
113 115 0 113 -2 115 -113 115 -59 0 -97 -4 -105 -12z"/>
<path d="M1022 1208 c-16 -16 -16 -190 0 -206 16 -16 190 -16 206 0 16 16 16
190 0 206 -8 8 -46 12 -103 12 -57 0 -95 -4 -103 -12z"/>
<path d="M1332 1208 c-15 -15 -16 -171 -2 -199 9 -17 22 -19 103 -19 59 0 97
4 105 12 8 8 12 46 12 103 0 57 -4 95 -12 103 -8 8 -46 12 -103 12 -57 0 -95
-4 -103 -12z"/>
</g>
</svg>
