<svg xmlns="http://www.w3.org/2000/svg" viewBox="0 0 512 512"><path d="M236.391 470.255c.001-.112-.011-.218-.015-.327-.004-.096-.007-.192-.014-.288a7.812 7.812 0 0 0-.082-.635c-.009-.056-.015-.112-.026-.167a7.32 7.32 0 0 0-.496-1.578c-.023-.052-.05-.102-.074-.154a7.332 7.332 0 0 0-.744-1.245c-.05-.068-.1-.137-.152-.204a7.59 7.59 0 0 0-.416-.479c-.041-.043-.078-.089-.119-.131a7.424 7.424 0 0 0-.603-.546l-.028-.026-35.077-28.172a7.41 7.41 0 0 0-10.418 1.138 7.41 7.41 0 0 0 1.138 10.418l17.268 13.87c-45.673-4.524-86.861-22.862-117.705-52.788-34.991-33.951-54.261-80.07-54.261-129.864 0-4.093-3.317-7.411-7.411-7.411s-7.411 3.318-7.411 7.411c0 53.837 20.868 103.734 58.761 140.501 33.416 32.423 77.951 52.225 127.212 56.965l-17.293 11.248a7.41 7.41 0 0 0 4.047 13.624 7.374 7.374 0 0 0 4.033-1.199l36.515-23.749.033-.024c.23-.152.453-.315.664-.491.031-.026.058-.055.089-.081a7.36 7.36 0 0 0 .498-.469c.061-.063.117-.129.176-.193a7.7 7.7 0 0 0 .517-.64c.115-.16.223-.326.325-.495.036-.06.075-.118.109-.179a7.31 7.31 0 0 0 .646-1.514c.012-.041.02-.083.032-.124.061-.218.114-.44.155-.666.015-.083.026-.166.038-.25a7.48 7.48 0 0 0 .062-.564c.004-.051.014-.101.017-.152.003-.05-.003-.1-.001-.15.002-.074.011-.146.011-.22zM433.938 97.194C400.52 64.773 355.985 44.971 306.724 40.23l17.294-11.248a7.41 7.41 0 0 0 2.172-10.253 7.41 7.41 0 0 0-10.252-2.172l-36.515 23.75-.033.024c-.23.152-.453.315-.664.491-.031.026-.058.054-.089.08-.173.149-.34.305-.499.469-.06.063-.117.128-.175.192a7.386 7.386 0 0 0-.843 1.136c-.036.06-.075.118-.109.179a7.368 7.368 0 0 0-.647 1.514c-.012.04-.02.081-.031.121a7.366 7.366 0 0 0-.155.668c-.015.083-.026.166-.038.25a7.48 7.48 0 0 0-.062.564c-.004.051-.014.101-.017.152-.003.05.003.1.001.15-.002.074-.011.146-.011.22.001.112.013.219.017.327.004.096.007.192.014.288.018.215.047.425.082.635.009.056.015.112.026.167.106.55.275 1.078.496 1.578.023.053.05.103.075.155a7.122 7.122 0 0 0 .743 1.244c.05.068.1.137.152.204.132.166.271.325.416.479.041.043.078.089.119.131.191.193.392.375.603.546l.028.026 35.077 28.172a7.379 7.379 0 0 0 4.635 1.633 7.41 7.41 0 0 0 4.645-13.189l-17.269-13.87c45.673 4.524 86.862 22.861 117.706 52.788 34.991 33.95 54.261 80.07 54.261 129.864a7.411 7.411 0 1 0 14.822 0c0-53.837-20.868-103.734-58.761-140.501zM138.79 0C62.261 0 0 62.261 0 138.79s62.261 138.79 138.79 138.79 138.79-62.261 138.79-138.79S215.319 0 138.79 0zm0 262.759c-68.356 0-123.969-55.613-123.969-123.969 0-68.357 55.613-123.969 123.969-123.969S262.759 70.433 262.759 138.79c0 68.356-55.613 123.969-123.969 123.969z"/><path d="M244.394 152.056a7.405 7.405 0 0 0-8.699 5.845c-3.778 19.251-13.138 36.79-27.072 50.723-18.653 18.653-43.453 28.926-69.833 28.926s-51.181-10.273-69.834-28.926c-13.899-13.899-23.251-31.392-27.045-50.588a7.41 7.41 0 0 0-14.539 2.874c4.365 22.088 15.12 42.212 31.103 58.195 21.454 21.452 49.976 33.266 80.315 33.266s58.861-11.814 80.313-33.267c16.023-16.021 26.789-36.198 31.135-58.349a7.412 7.412 0 0 0-5.844-8.699zm4.408-41.583c-5.032-19.62-15.302-37.6-29.698-51.997-21.453-21.452-49.975-33.267-80.314-33.267-30.339 0-58.861 11.815-80.314 33.267-14.364 14.365-24.622 32.302-29.666 51.871a7.412 7.412 0 0 0 14.353 3.699c4.383-17.006 13.302-32.598 25.794-45.09C87.609 50.303 112.41 40.03 138.79 40.03c26.38 0 51.18 10.272 69.833 28.926 12.521 12.52 21.45 28.15 25.823 45.199a7.413 7.413 0 0 0 9.019 5.337 7.41 7.41 0 0 0 5.337-9.019zM373.21 234.42c-76.529 0-138.79 62.261-138.79 138.79S296.681 512 373.21 512 512 449.739 512 373.21s-62.261-138.79-138.79-138.79zm0 262.759c-68.356 0-123.969-55.612-123.969-123.969 0-68.356 55.613-123.969 123.969-123.969s123.969 55.612 123.969 123.969-55.613 123.969-123.969 123.969z"/><path d="M483.649 346.612c-4.871-20.306-15.288-38.881-30.124-53.717-21.453-21.453-49.976-33.267-80.314-33.267-30.338 0-58.861 11.814-80.314 33.267-14.698 14.698-25.068 33.085-29.992 53.173a7.409 7.409 0 0 0 5.432 8.963c3.974.979 7.988-1.459 8.961-5.433 4.278-17.457 13.296-33.44 26.079-46.222 18.653-18.653 43.453-28.926 69.833-28.926s51.181 10.273 69.834 28.926c12.903 12.902 21.959 29.049 26.193 46.694a7.412 7.412 0 1 0 14.412-3.458zm-4.955 40.788a7.41 7.41 0 0 0-8.75 5.769c-3.883 18.913-13.185 36.159-26.901 49.875-18.653 18.653-43.454 28.926-69.834 28.926s-51.18-10.272-69.833-28.926c-13.607-13.606-22.879-30.705-26.813-49.449a7.41 7.41 0 0 0-8.775-5.73 7.41 7.41 0 0 0-5.73 8.774c4.526 21.568 15.19 41.238 30.837 56.884 21.453 21.452 49.975 33.267 80.314 33.267s58.862-11.814 80.314-33.267c15.772-15.772 26.47-35.612 30.938-57.374a7.409 7.409 0 0 0-5.767-8.749zm-334.9-260.476V91.995c12.044.86 16.518 6.366 20.647 6.366 5.162 0 7.571-6.538 7.571-9.807 0-8.432-16.518-12.045-28.218-12.389v-4.646c0-2.064-2.581-3.957-5.162-3.957-2.925 0-4.99 1.892-4.99 3.957v4.99c-16.346 1.721-32.692 10.324-32.692 32.004 0 22.024 17.207 28.218 32.692 33.724v40.435c-17.55-1.376-22.196-13.421-27.874-13.421-4.302 0-7.915 5.678-7.915 9.808 0 8.431 14.453 19.96 35.789 20.304v5.334c0 2.064 2.065 3.957 4.99 3.957 2.581 0 5.162-1.892 5.162-3.957v-5.85c18.583-2.581 31.316-14.281 31.316-35.445 0-23.401-16.347-30.972-31.316-36.478zm-9.119-3.269c-9.12-3.441-16.519-7.055-16.518-16.862 0-8.947 6.882-13.249 16.518-14.453v31.315zm8.086 58.673v-36.305c8.432 3.613 15.142 8.431 15.141 19.271 0 9.807-5.849 15.313-15.141 17.034z"/><path d="M400.009 374.418c7.821-3.459 12.784-11.881 12.784-24.364 0-15.777-7.911-22.476-18.588-24.874h.382v-7.017a7.017 7.017 0 1 0-14.034 0v5.872h-7.671v-5.872a7.017 7.017 0 0 0-14.034 0v5.872h-10.684a7.417 7.417 0 0 0-7.417 7.417c0 4.031 3.217 7.303 7.222 7.407v80.293c-4.006.104-7.222 3.376-7.222 7.407a7.417 7.417 0 0 0 7.417 7.417h10.684v6.241a7.017 7.017 0 1 0 14.034 0v-6.241h7.671v6.241a7.017 7.017 0 0 0 14.034 0V433.2h-.709c12.647-2.522 21.621-11.506 21.621-30.808v-2.858c.001-15.339-6.164-21.506-15.49-25.116zm-36.246-36.246h17.597c9.475 0 15.49 4.362 15.49 14.438 0 10.227-4.963 15.491-15.189 15.491h-17.898v-29.929zm35.795 63.017c0 12.934-6.317 18.649-16.995 18.649h-18.8v-39.103h18.8c10.678 0 16.995 4.813 16.995 18.048v2.406z"/></svg>